<mxfile host="app.diagrams.net" modified="2024-01-07T15:54:32.793Z" agent="Mozilla/5.0 (Windows NT 10.0; Win64; x64) AppleWebKit/537.36 (KHTML, like Gecko) Chrome/120.0.0.0 Safari/537.36" version="22.1.16" etag="2vkIADZ29P5CHcIfZ728" type="github">
  <diagram name="Page-1" id="GiUFzck7zUOy7BYLyPoL">
    <mxGraphModel>
      <root>
        <mxCell id="0" />
        <mxCell id="1" parent="0" />
      </root>
    </mxGraphModel>
  </diagram>
</mxfile>
